<svg xmlns="http://www.w3.org/2000/svg" xmlns:xlink="http://www.w3.org/1999/xlink" width="1920" zoomAndPan="magnify" viewBox="0 0 1440 809.999993" height="1080" preserveAspectRatio="xMidYMid meet" version="1.0"><defs><clipPath id="27526cd4e0"><path d="M 1083 525 L 1308 525 L 1308 747 L 1083 747 Z M 1083 525 " clip-rule="nonzero"/></clipPath><clipPath id="18e1c19764"><path d="M 1024.59375 610.492188 L 1225.589844 409.5 L 1424.996094 608.902344 L 1224 809.898438 Z M 1024.59375 610.492188 " clip-rule="nonzero"/></clipPath><clipPath id="55cd0b4671"><path d="M 1024.59375 610.492188 L 1225.589844 409.5 L 1424.996094 608.902344 L 1224 809.898438 Z M 1024.59375 610.492188 " clip-rule="nonzero"/></clipPath><clipPath id="25b4c9d5f7"><path d="M 1141 472 L 1367 472 L 1367 694 L 1141 694 Z M 1141 472 " clip-rule="nonzero"/></clipPath><clipPath id="b58686758c"><path d="M 1024.59375 610.492188 L 1225.589844 409.5 L 1424.996094 608.902344 L 1224 809.898438 Z M 1024.59375 610.492188 " clip-rule="nonzero"/></clipPath><clipPath id="6a690fc499"><path d="M 1024.59375 610.492188 L 1225.589844 409.5 L 1424.996094 608.902344 L 1224 809.898438 Z M 1024.59375 610.492188 " clip-rule="nonzero"/></clipPath><clipPath id="494f19e769"><path d="M 1003 370 L 1097 370 L 1097 462 L 1003 462 Z M 1003 370 " clip-rule="nonzero"/></clipPath><clipPath id="401bd0dc3c"><path d="M 979.433594 405.257812 L 1062.695312 321.996094 L 1145.429688 404.730469 L 1062.167969 487.992188 Z M 979.433594 405.257812 " clip-rule="nonzero"/></clipPath><clipPath id="5c48aec670"><path d="M 979.433594 405.257812 L 1062.695312 321.996094 L 1145.429688 404.730469 L 1062.167969 487.992188 Z M 979.433594 405.257812 " clip-rule="nonzero"/></clipPath><clipPath id="48e94168fc"><path d="M 1028 347 L 1122 347 L 1122 440 L 1028 440 Z M 1028 347 " clip-rule="nonzero"/></clipPath><clipPath id="9d0e427c6e"><path d="M 979.433594 405.257812 L 1062.695312 321.996094 L 1145.429688 404.730469 L 1062.167969 487.992188 Z M 979.433594 405.257812 " clip-rule="nonzero"/></clipPath><clipPath id="149ee22085"><path d="M 979.433594 405.257812 L 1062.695312 321.996094 L 1145.429688 404.730469 L 1062.167969 487.992188 Z M 979.433594 405.257812 " clip-rule="nonzero"/></clipPath><clipPath id="44f2c41edf"><path d="M 49 64 L 143 64 L 143 156 L 49 156 Z M 49 64 " clip-rule="nonzero"/></clipPath><clipPath id="d8d68e1e32"><path d="M 24.847656 99.359375 L 108.109375 16.097656 L 190.839844 98.828125 L 107.578125 182.089844 Z M 24.847656 99.359375 " clip-rule="nonzero"/></clipPath><clipPath id="98b084f159"><path d="M 24.847656 99.359375 L 108.109375 16.097656 L 190.839844 98.828125 L 107.578125 182.089844 Z M 24.847656 99.359375 " clip-rule="nonzero"/></clipPath><clipPath id="d5ee11b7bd"><path d="M 73 41 L 167 41 L 167 134 L 73 134 Z M 73 41 " clip-rule="nonzero"/></clipPath><clipPath id="086bb302fe"><path d="M 24.847656 99.359375 L 108.109375 16.097656 L 190.839844 98.828125 L 107.578125 182.089844 Z M 24.847656 99.359375 " clip-rule="nonzero"/></clipPath><clipPath id="6bc183b569"><path d="M 24.847656 99.359375 L 108.109375 16.097656 L 190.839844 98.828125 L 107.578125 182.089844 Z M 24.847656 99.359375 " clip-rule="nonzero"/></clipPath><clipPath id="0ff26ec5a6"><path d="M 573 674 L 932 674 L 932 810 L 573 810 Z M 573 674 " clip-rule="nonzero"/></clipPath><clipPath id="9ea8f50da3"><path d="M 479.359375 809.425781 L 800.738281 488.046875 L 1119.996094 807.304688 L 798.617188 1128.683594 Z M 479.359375 809.425781 " clip-rule="nonzero"/></clipPath><clipPath id="45dc49259b"><path d="M 479.359375 809.425781 L 800.738281 488.046875 L 1119.996094 807.304688 L 798.617188 1128.683594 Z M 479.359375 809.425781 " clip-rule="nonzero"/></clipPath><clipPath id="b8a6f529af"><path d="M 667 587 L 1028 587 L 1028 810 L 667 810 Z M 667 587 " clip-rule="nonzero"/></clipPath><clipPath id="2a0f6e492e"><path d="M 479.359375 809.425781 L 800.738281 488.046875 L 1119.996094 807.304688 L 798.617188 1128.683594 Z M 479.359375 809.425781 " clip-rule="nonzero"/></clipPath><clipPath id="3023ecc0b1"><path d="M 479.359375 809.425781 L 800.738281 488.046875 L 1119.996094 807.304688 L 798.617188 1128.683594 Z M 479.359375 809.425781 " clip-rule="nonzero"/></clipPath><clipPath id="ce071f0bdb"><path d="M 477 0 L 837 0 L 837 205 L 477 205 Z M 477 0 " clip-rule="nonzero"/></clipPath><clipPath id="e3b7bd602f"><path d="M 383.835938 -14.136719 L 705.214844 -335.515625 L 1024.472656 -16.257812 L 703.09375 305.121094 Z M 383.835938 -14.136719 " clip-rule="nonzero"/></clipPath><clipPath id="fd903b23bb"><path d="M 383.835938 -14.136719 L 705.214844 -335.515625 L 1024.472656 -16.257812 L 703.09375 305.121094 Z M 383.835938 -14.136719 " clip-rule="nonzero"/></clipPath><clipPath id="06fb2424f4"><path d="M 571 0 L 932 0 L 932 119 L 571 119 Z M 571 0 " clip-rule="nonzero"/></clipPath><clipPath id="21737a9290"><path d="M 383.835938 -14.136719 L 705.214844 -335.515625 L 1024.472656 -16.257812 L 703.09375 305.121094 Z M 383.835938 -14.136719 " clip-rule="nonzero"/></clipPath><clipPath id="e68233adf4"><path d="M 383.835938 -14.136719 L 705.214844 -335.515625 L 1024.472656 -16.257812 L 703.09375 305.121094 Z M 383.835938 -14.136719 " clip-rule="nonzero"/></clipPath><clipPath id="fa9519edfb"><path d="M 689 339 L 865 339 L 865 513 L 689 513 Z M 689 339 " clip-rule="nonzero"/></clipPath><clipPath id="7650ab2ebb"><path d="M 643.261719 405.484375 L 800.238281 248.507812 L 956.15625 404.425781 L 799.179688 561.402344 Z M 643.261719 405.484375 " clip-rule="nonzero"/></clipPath><clipPath id="f632859949"><path d="M 643.261719 405.484375 L 800.238281 248.507812 L 956.15625 404.425781 L 799.179688 561.402344 Z M 643.261719 405.484375 " clip-rule="nonzero"/></clipPath><clipPath id="85b2bb4b69"><path d="M 735 297 L 911 297 L 911 471 L 735 471 Z M 735 297 " clip-rule="nonzero"/></clipPath><clipPath id="ff3579ab9c"><path d="M 643.261719 405.484375 L 800.238281 248.507812 L 956.15625 404.425781 L 799.179688 561.402344 Z M 643.261719 405.484375 " clip-rule="nonzero"/></clipPath><clipPath id="74f20f2d65"><path d="M 643.261719 405.484375 L 800.238281 248.507812 L 956.15625 404.425781 L 799.179688 561.402344 Z M 643.261719 405.484375 " clip-rule="nonzero"/></clipPath></defs><path fill="#b1d4e0" d="M 1202.859375 -198.789062 C 1184.667969 -201.941406 1164.617188 -193.433594 1155.308594 -177.257812 C 1152.695312 -173.0625 1149.523438 -167.082031 1143.519531 -168.40625 C 1127.53125 -171.070312 1110.605469 -169.320312 1096.558594 -160.816406 C 1071.71875 -146.984375 1058.339844 -113.558594 1071.179688 -87.285156 C 1074.96875 -80.910156 1069.695312 -72.160156 1062.433594 -71.914062 C 1040.796875 -68.554688 1021.691406 -50.007812 1020.453125 -27.695312 C 1019.460938 -18.058594 1022.554688 -8.695312 1027.210938 -0.378906 C 1031.382812 5.515625 1028.289062 14.582031 1021.238281 16.417969 C 998.980469 24.140625 979.472656 49.546875 988.460938 73.496094 C 991.394531 83.859375 999.734375 90.933594 1006.789062 98.523438 C 1011.414062 104.015625 1006.601562 111.144531 1005.65625 117.039062 C 1016.582031 104.769531 1031.6875 96.964844 1047.855469 94.429688 C 1059.507812 64.207031 1094.894531 46.308594 1126.140625 55.082031 C 1136.023438 58.6875 1135.050781 75.109375 1124.5 77.171875 C 1114.785156 77.203125 1104.777344 74.324219 1095.355469 78.117188 C 1080.257812 82.613281 1070.378906 96.472656 1066.261719 111.058594 C 1063.894531 118.269531 1055.09375 117.0625 1049.171875 118.191406 C 1030.597656 120.265625 1015.855469 136.570312 1013.351562 154.769531 C 1021.46875 161.253906 1018.589844 172.558594 1023.214844 180.957031 C 1031.613281 200.226562 1053.332031 211.042969 1073.8125 209.242188 C 1080.1875 208.328125 1086.1875 213.523438 1085.953125 220.058594 C 1083.828125 230.667969 1078.28125 241.078125 1080.488281 252.21875 C 1083.75 274.769531 1104.742188 292.617188 1127.402344 292.992188 C 1135.316406 292.265625 1143.707031 294.847656 1146.910156 302.785156 C 1159.964844 327.980469 1195.570312 334.972656 1218.445312 319.226562 C 1232.628906 310.289062 1240.675781 293.335938 1239.710938 276.734375 C 1239.308594 238.359375 1240.300781 199.925781 1239.226562 161.605469 C 1233.707031 151.410156 1235.78125 139.023438 1229.808594 128.984375 C 1220.308594 110.578125 1198.453125 100.460938 1178.191406 102.90625 C 1158.464844 104.871094 1139.628906 117.679688 1132.605469 136.597656 C 1154.214844 143.515625 1172.808594 164.074219 1170.546875 187.8125 C 1169.417969 198.390625 1152.25 200.0625 1148.859375 190.210938 C 1147.296875 182.753906 1147.246094 174.304688 1141.589844 168.492188 C 1130.875 155.332031 1108.351562 155.789062 1098.175781 169.355469 C 1092.472656 175.542969 1093.660156 184.511719 1090.910156 191.878906 C 1085.957031 199.953125 1071.019531 197.636719 1069.917969 187.761719 C 1067.710938 163.757812 1086.683594 141.6875 1109.699219 136.84375 C 1116.289062 110.414062 1138.46875 89.371094 1164.898438 83.3125 C 1191.382812 75.828125 1220.957031 84.738281 1239.796875 104.597656 C 1239.582031 51.527344 1239.636719 -1.574219 1239.746094 -54.644531 C 1218.058594 -36.640625 1187.882812 -27.839844 1160.351562 -36.019531 C 1147.835938 -40.214844 1134.519531 -45.253906 1125.660156 -55.480469 C 1119.925781 -64.09375 1130.582031 -75.800781 1139.597656 -71.785156 C 1147.378906 -67.078125 1154.753906 -61.453125 1163.605469 -58.839844 C 1181.609375 -52.433594 1202.355469 -55.3125 1218.050781 -66.15625 C 1229.511719 -73.828125 1240.414062 -85.480469 1240.738281 -100.042969 C 1240.898438 -118.910156 1240.847656 -137.773438 1240.738281 -156.640625 C 1240.726562 -177.523438 1222.992188 -195.585938 1202.859375 -198.789062 Z M 1202.859375 -198.789062 " fill-opacity="1" fill-rule="nonzero"/><path fill="#b1d4e0" d="M 1496.960938 27.792969 C 1491.875 22.253906 1496.71875 14.820312 1497.824219 8.6875 C 1487.0625 21.09375 1471.855469 28.84375 1455.734375 31.398438 C 1443.515625 61.464844 1409.070312 80.21875 1377.285156 72.359375 C 1366.546875 69.71875 1366.65625 52.441406 1377.472656 49.914062 C 1386.566406 49.484375 1395.851562 52.683594 1404.789062 49.589844 C 1420.582031 45.742188 1431.644531 31.773438 1435.816406 16.597656 C 1437.890625 8.816406 1447.121094 10.003906 1453.3125 8.875 C 1471.777344 6.695312 1486.332031 -9.503906 1488.96875 -27.566406 C 1484.175781 -31.761719 1482.671875 -37.710938 1482.160156 -43.792969 C 1478.230469 -67.152344 1454.578125 -83.652344 1431.429688 -82.140625 C 1424.542969 -80.765625 1416.25 -84.617188 1416.378906 -92.503906 C 1418.296875 -103.964844 1424.671875 -115.191406 1421.441406 -127.117188 C 1417.027344 -150.796875 1393.289062 -167.78125 1369.550781 -166.0625 C 1359.480469 -164.421875 1356.820312 -175.726562 1351.652344 -181.75 C 1333.941406 -204.222656 1296.449219 -205.292969 1276.863281 -184.734375 C 1266.609375 -173.722656 1260.6875 -158.519531 1261.441406 -143.421875 C 1261.601562 -102.136719 1261.390625 -60.824219 1261.519531 -19.542969 C 1261.628906 2.980469 1280.410156 22.066406 1302.050781 25.835938 C 1326.96875 30.816406 1354.71875 16.984375 1364.03125 -7.050781 C 1342.824219 -14.128906 1324.496094 -33.71875 1325.8125 -57.191406 C 1325.761719 -68.222656 1342.734375 -71.128906 1347.390625 -61.769531 C 1349.355469 -54.261719 1348.894531 -45.570312 1354.632812 -39.511719 C 1365.023438 -26.210938 1387.410156 -26.210938 1397.910156 -39.429688 C 1403.644531 -45.511719 1403.210938 -54.285156 1405.226562 -61.875 C 1409.960938 -71.078125 1426.621094 -68.203125 1426.757812 -57.300781 C 1428.183594 -33.507812 1409.320312 -12.222656 1386.605469 -7.324219 C 1378.421875 28.421875 1340.773438 51.996094 1305.136719 48.28125 C 1288.882812 46.984375 1274.15625 38.917969 1261.457031 29.148438 C 1261.507812 71 1261.429688 112.84375 1261.507812 154.726562 C 1274.480469 153.890625 1286.535156 147.917969 1299.558594 147.488281 C 1317.515625 146.816406 1335.726562 153.273438 1348.867188 165.597656 C 1361.246094 177.445312 1368.679688 193.886719 1370.910156 210.761719 C 1388.941406 221.390625 1398.902344 246.179688 1387.941406 265.128906 C 1382.15625 273.28125 1368.699219 266.90625 1368.945312 257.78125 C 1369.082031 251.132812 1371.6875 243.949219 1368.109375 237.734375 C 1363.484375 228.019531 1350.480469 223.65625 1341.058594 229.117188 C 1334.171875 232.242188 1332.476562 240.289062 1327.683594 245.453125 C 1322.140625 250.269531 1313.015625 247.851562 1310.136719 241.28125 C 1306.855469 234.472656 1311.511719 227.3125 1314.980469 221.605469 C 1322.21875 210.4375 1335.195312 204.945312 1347.925781 203.011719 C 1342.757812 186.785156 1329.625 173.464844 1312.640625 170.125 C 1295.394531 165.253906 1279.675781 176.746094 1262.609375 176.449219 C 1262.660156 213.429688 1262.449219 250.382812 1262.6875 287.355469 C 1263.492188 309.347656 1283.597656 327.511719 1305.101562 328.699219 C 1322.890625 330.179688 1340.648438 320.652344 1350.019531 305.605469 C 1352.601562 302.402344 1354.351562 297.609375 1358.847656 296.695312 C 1363.257812 296.324219 1367.648438 297.316406 1372.058594 297.5625 C 1398.21875 300.035156 1425.269531 284.105469 1434.984375 259.53125 C 1441.171875 245.265625 1440.957031 228.550781 1434.207031 214.5625 C 1430.738281 207.675781 1437.300781 199.808594 1444.488281 199.867188 C 1468.652344 195.878906 1488.652344 172.089844 1485.046875 147.199219 C 1484.691406 138.347656 1478.71875 131.265625 1476.460938 123.003906 C 1475.949219 114.792969 1483.886719 111.78125 1490.054688 109.175781 C 1510.886719 100.109375 1523.15625 74.453125 1515.109375 52.792969 C 1512.144531 42.511719 1504.179688 35.191406 1496.960938 27.792969 Z M 1496.960938 27.792969 " fill-opacity="1" fill-rule="nonzero"/><path fill="#4a6f73" d="M 282.636719 214.882812 C 264.445312 211.730469 244.398438 220.238281 235.085938 236.414062 C 232.472656 240.609375 229.300781 246.589844 223.296875 245.265625 C 207.308594 242.601562 190.382812 244.351562 176.335938 252.855469 C 151.496094 266.6875 138.117188 300.113281 150.957031 326.386719 C 154.75 332.761719 149.472656 341.511719 142.214844 341.757812 C 120.574219 345.117188 101.46875 363.660156 100.230469 385.976562 C 99.238281 395.613281 102.332031 404.972656 106.988281 413.292969 C 111.160156 419.1875 108.066406 428.253906 101.015625 430.089844 C 78.757812 437.808594 59.25 463.21875 68.238281 487.167969 C 71.171875 497.53125 79.511719 504.605469 86.566406 512.195312 C 91.191406 517.6875 86.378906 524.816406 85.4375 530.710938 C 96.359375 518.441406 111.464844 510.632812 127.632812 508.101562 C 139.285156 477.878906 174.675781 459.980469 205.917969 468.753906 C 215.800781 472.359375 214.828125 488.78125 204.277344 490.84375 C 194.5625 490.875 184.554688 487.996094 175.136719 491.789062 C 160.039062 496.285156 150.15625 510.144531 146.042969 524.730469 C 143.671875 531.941406 134.871094 530.734375 128.949219 531.863281 C 110.378906 533.933594 95.632812 550.242188 93.128906 568.441406 C 101.246094 574.925781 98.367188 586.230469 102.996094 594.628906 C 111.390625 613.898438 133.109375 624.714844 153.589844 622.914062 C 159.964844 622 165.96875 627.195312 165.730469 633.730469 C 163.605469 644.335938 158.058594 654.75 160.269531 665.890625 C 163.527344 688.441406 184.519531 706.289062 207.179688 706.664062 C 215.09375 705.9375 223.484375 708.519531 226.6875 716.457031 C 239.742188 741.648438 275.347656 748.644531 298.222656 732.898438 C 312.40625 723.960938 320.453125 707.007812 319.488281 690.40625 C 319.085938 652.03125 320.078125 613.597656 319.007812 575.277344 C 313.488281 565.078125 315.558594 552.695312 309.585938 542.65625 C 300.085938 524.25 278.234375 514.132812 257.96875 516.578125 C 238.246094 518.542969 219.40625 531.351562 212.382812 550.269531 C 233.992188 557.1875 252.585938 577.746094 250.328125 601.484375 C 249.195312 612.0625 232.027344 613.734375 228.636719 603.882812 C 227.078125 596.425781 227.027344 587.976562 221.371094 582.164062 C 210.65625 569 188.132812 569.460938 177.957031 583.027344 C 172.25 589.214844 173.4375 598.183594 170.6875 605.550781 C 165.738281 613.625 150.796875 611.308594 149.695312 601.433594 C 147.488281 577.429688 166.464844 555.359375 189.476562 550.515625 C 196.070312 524.082031 218.246094 503.042969 244.679688 496.984375 C 271.160156 489.5 300.734375 498.410156 319.574219 518.269531 C 319.359375 465.199219 319.417969 412.097656 319.523438 359.027344 C 297.835938 377.03125 267.664062 385.832031 240.128906 377.652344 C 227.617188 373.457031 214.296875 368.417969 205.4375 358.191406 C 199.703125 349.578125 210.359375 337.871094 219.375 341.886719 C 227.15625 346.59375 234.53125 352.21875 243.382812 354.832031 C 261.386719 361.238281 282.132812 358.359375 297.828125 347.515625 C 309.292969 339.84375 320.195312 328.191406 320.515625 313.628906 C 320.675781 294.757812 320.625 275.898438 320.515625 257.03125 C 320.503906 236.148438 302.773438 218.085938 282.636719 214.882812 Z M 282.636719 214.882812 " fill-opacity="1" fill-rule="nonzero"/><path fill="#4a6f73" d="M 576.742188 441.464844 C 571.652344 435.925781 576.496094 428.492188 577.605469 422.359375 C 566.839844 434.765625 551.632812 442.515625 535.515625 445.070312 C 523.296875 475.136719 488.847656 493.890625 457.0625 486.03125 C 446.328125 483.390625 446.433594 466.113281 457.25 463.585938 C 466.347656 463.15625 475.628906 466.355469 484.566406 463.261719 C 500.363281 459.414062 511.421875 445.445312 515.597656 430.269531 C 517.667969 422.488281 526.902344 423.675781 533.089844 422.546875 C 551.554688 420.367188 566.113281 404.167969 568.746094 386.105469 C 563.953125 381.910156 562.449219 375.960938 561.9375 369.878906 C 558.007812 346.519531 534.355469 330.019531 511.207031 331.53125 C 504.320312 332.90625 496.03125 329.054688 496.160156 321.167969 C 498.074219 309.707031 504.449219 298.480469 501.21875 286.554688 C 496.808594 262.875 473.066406 245.890625 449.328125 247.609375 C 439.261719 249.25 436.597656 237.945312 431.429688 231.921875 C 413.722656 209.449219 376.230469 208.378906 356.640625 228.9375 C 346.386719 239.945312 340.464844 255.152344 341.21875 270.25 C 341.378906 311.535156 341.171875 352.847656 341.300781 394.128906 C 341.40625 416.652344 360.1875 435.738281 381.828125 439.507812 C 406.746094 444.488281 434.496094 430.65625 443.808594 406.621094 C 422.601562 399.542969 404.273438 379.953125 405.589844 356.480469 C 405.539062 345.449219 422.515625 342.542969 427.171875 351.902344 C 429.136719 359.410156 428.675781 368.101562 434.410156 374.160156 C 444.800781 387.460938 467.1875 387.460938 477.6875 374.238281 C 483.421875 368.160156 482.992188 359.386719 485.003906 351.796875 C 489.742188 342.589844 506.398438 345.46875 506.535156 356.371094 C 507.960938 380.164062 489.101562 401.449219 466.382812 406.347656 C 458.199219 442.09375 420.550781 465.667969 384.914062 461.953125 C 368.660156 460.65625 353.9375 452.589844 341.234375 442.820312 C 341.285156 484.671875 341.207031 526.515625 341.285156 568.398438 C 354.261719 567.5625 366.3125 561.589844 379.339844 561.15625 C 397.292969 560.488281 415.503906 566.945312 428.644531 579.269531 C 441.023438 591.117188 448.457031 607.558594 450.6875 624.433594 C 468.71875 635.0625 478.679688 659.851562 467.71875 678.800781 C 461.933594 686.953125 448.476562 680.578125 448.722656 671.453125 C 448.859375 664.804688 451.464844 657.621094 447.886719 651.402344 C 443.261719 641.6875 430.257812 637.328125 420.835938 642.789062 C 413.953125 645.914062 412.253906 653.957031 407.460938 659.125 C 401.917969 663.941406 392.792969 661.523438 389.917969 654.953125 C 386.636719 648.144531 391.289062 640.984375 394.757812 635.277344 C 402 624.109375 414.972656 618.617188 427.703125 616.683594 C 422.535156 600.457031 409.402344 587.136719 392.421875 583.796875 C 375.171875 578.925781 359.457031 590.417969 342.386719 590.121094 C 342.4375 627.101562 342.226562 664.054688 342.464844 701.027344 C 343.269531 723.019531 363.378906 741.183594 384.878906 742.371094 C 402.667969 743.851562 420.425781 734.324219 429.796875 719.277344 C 432.378906 716.074219 434.128906 711.28125 438.625 710.367188 C 443.039062 709.996094 447.425781 710.988281 451.839844 711.230469 C 477.996094 713.707031 505.046875 697.777344 514.761719 673.199219 C 520.949219 658.9375 520.734375 642.222656 513.984375 628.234375 C 510.515625 621.347656 517.078125 613.480469 524.265625 613.539062 C 548.429688 609.550781 568.429688 585.761719 564.824219 560.871094 C 564.472656 552.019531 558.5 544.9375 556.238281 536.675781 C 555.726562 528.464844 563.664062 525.453125 569.832031 522.847656 C 590.664062 513.777344 602.933594 488.125 594.890625 466.464844 C 591.925781 456.183594 583.957031 448.863281 576.742188 441.464844 Z M 576.742188 441.464844 " fill-opacity="1" fill-rule="nonzero"/><g clip-path="url(#27526cd4e0)"><g clip-path="url(#18e1c19764)"><g clip-path="url(#55cd0b4671)"><path fill="#4a6f73" d="M 1109.488281 530.386719 C 1101.605469 535.9375 1097.34375 546.484375 1099.878906 555.894531 C 1100.460938 558.40625 1101.5 561.789062 1098.792969 563.515625 C 1091.90625 568.4375 1086.300781 575.332031 1084.257812 583.660156 C 1080.191406 597.9375 1087.59375 615.222656 1102.035156 620.183594 C 1105.789062 621.136719 1107.074219 626.316406 1104.484375 629.085938 C 1097.734375 638.320312 1097.527344 652.222656 1105.308594 660.917969 C 1108.5 664.84375 1113.101562 667.15625 1117.890625 668.507812 C 1121.609375 669.144531 1123.8125 673.636719 1121.886719 676.917969 C 1116.519531 687.988281 1118.699219 704.574219 1130.859375 710.097656 C 1135.773438 712.839844 1141.464844 712.371094 1146.871094 712.570312 C 1150.605469 712.890625 1151.460938 717.300781 1153.289062 719.824219 C 1152.792969 711.261719 1155.488281 702.800781 1160.523438 695.894531 C 1153.664062 680.433594 1160.125 660.757812 1174.902344 652.457031 C 1179.882812 650.140625 1185.585938 656.5625 1182.453125 661.222656 C 1178.878906 664.820312 1174.117188 667.453125 1172.039062 672.332031 C 1168.125 679.566406 1169.59375 688.332031 1173.460938 695.238281 C 1175.25 698.773438 1171.554688 701.578125 1169.785156 704.183594 C 1163.691406 711.804688 1164.269531 723.273438 1170.0625 730.917969 C 1175.453125 730.3125 1178.566406 735.550781 1183.375 736.945312 C 1193.59375 740.957031 1205.605469 736.933594 1212.503906 728.707031 C 1214.519531 726.015625 1218.65625 725.71875 1220.980469 728.21875 C 1224.113281 732.917969 1225.910156 738.8125 1230.839844 742.109375 C 1240.371094 749.234375 1254.710938 748.070312 1263.21875 739.84375 C 1265.871094 736.652344 1269.921875 734.507812 1274.039062 736.253906 C 1288.160156 740.738281 1303.890625 730.171875 1306.523438 715.910156 C 1308.460938 707.375 1305.171875 698.144531 1298.683594 692.367188 C 1284.367188 678.347656 1270.539062 663.789062 1255.996094 650.035156 C 1250.191406 648.308594 1246.382812 642.96875 1240.472656 641.46875 C 1230.167969 638.175781 1218.359375 642.511719 1211.78125 650.898438 C 1205.222656 658.90625 1202.996094 670.59375 1207.390625 680.171875 C 1217.921875 674.746094 1232.378906 675.472656 1240.3125 685.070312 C 1243.800781 689.394531 1238.078125 696.351562 1233.1875 693.964844 C 1229.859375 691.789062 1226.71875 688.6875 1222.484375 688.628906 C 1213.667969 687.726562 1205.519531 696.214844 1206.773438 704.980469 C 1206.949219 709.371094 1210.699219 712.246094 1212.40625 715.980469 C 1213.558594 720.789062 1207.1875 725.449219 1203.132812 722.210938 C 1193.453125 714.164062 1192.3125 699.007812 1199.019531 688.71875 C 1191.695312 676.527344 1192.117188 660.566406 1199.636719 648.570312 C 1206.652344 636.027344 1220.863281 628.394531 1235.152344 628.773438 C 1215.476562 609.257812 1195.890625 589.628906 1176.335938 569.992188 C 1174.972656 584.648438 1167.082031 599.039062 1153.894531 606.183594 C 1147.722656 609.257812 1140.945312 612.316406 1133.898438 611.808594 C 1128.601562 610.746094 1128.210938 602.488281 1133.023438 600.640625 C 1137.632812 599.507812 1142.4375 598.863281 1146.667969 596.558594 C 1155.683594 592.273438 1162.28125 583.550781 1164.070312 573.75 C 1165.472656 566.683594 1165.195312 558.359375 1159.9375 552.859375 C 1153.027344 545.835938 1146.042969 538.886719 1139.039062 531.960938 C 1131.320312 524.253906 1118.105469 524.132812 1109.488281 530.386719 Z M 1109.488281 530.386719 " fill-opacity="1" fill-rule="nonzero"/></g></g></g><g clip-path="url(#25b4c9d5f7)"><g clip-path="url(#b58686758c)"><g clip-path="url(#6a690fc499)"><path fill="#4a6f73" d="M 1301.753906 505.453125 C 1297.828125 505.285156 1296.875 500.75 1295.019531 498.078125 C 1295.625 506.636719 1292.871094 515.113281 1287.863281 522.007812 C 1294.453125 537.621094 1288.65625 557.265625 1274.019531 566.101562 C 1269.078125 569.089844 1262.738281 562.671875 1265.800781 557.742188 C 1269 554.226562 1273.609375 551.980469 1275.765625 547.539062 C 1280.179688 540.285156 1279.105469 531.042969 1275.042969 523.894531 C 1272.933594 520.257812 1276.78125 517.289062 1278.648438 514.585938 C 1284.664062 506.960938 1284.058594 495.605469 1278.359375 487.960938 C 1275.042969 488.183594 1272.289062 486.542969 1269.855469 484.484375 C 1259.777344 477.308594 1244.953125 479.953125 1236.960938 489.058594 C 1234.925781 492.109375 1230.441406 493.746094 1227.578125 490.789062 C 1224.050781 485.847656 1222.261719 479.347656 1216.664062 476.136719 C 1206.292969 469.023438 1191.253906 471.515625 1183.125 480.917969 C 1180.011719 485.242188 1174.855469 482.050781 1170.722656 481.734375 C 1155.882812 479.976562 1141.644531 493.421875 1142.003906 508.246094 C 1142.28125 516.101562 1145.710938 523.902344 1151.5625 529.199219 C 1166.867188 544.382812 1182.042969 559.714844 1197.335938 574.910156 C 1205.695312 583.1875 1219.675781 583.300781 1229.058594 576.703125 C 1240.097656 569.339844 1245.238281 553.988281 1239.800781 541.671875 C 1229.355469 546.890625 1215.355469 546.425781 1207.171875 537.269531 C 1203.082031 533.214844 1208.277344 525.875 1213.453125 527.609375 C 1216.949219 529.65625 1219.988281 533.035156 1224.34375 533.15625 C 1233.09375 534.230469 1241.359375 525.964844 1240.355469 517.207031 C 1240.226562 512.84375 1236.828125 509.761719 1234.769531 506.214844 C 1233.117188 501.066406 1240.332031 495.980469 1244.410156 499.953125 C 1253.71875 508.214844 1254.617188 523.039062 1248.035156 533.234375 C 1258.214844 549.457031 1253.015625 572.0625 1238.484375 583.851562 C 1232.003906 589.375 1223.589844 591.832031 1215.292969 592.914062 C 1230.765625 608.351562 1246.1875 623.832031 1261.679688 639.265625 C 1266.164062 634.167969 1268.410156 627.511719 1273.058594 622.542969 C 1279.441406 615.664062 1288.550781 611.324219 1297.953125 611.023438 C 1306.898438 610.828125 1315.714844 614.152344 1322.769531 619.5625 C 1333.355469 616.828125 1346.1875 622.304688 1349.136719 633.347656 C 1350.007812 638.492188 1342.6875 641.109375 1339.40625 637.648438 C 1337.003906 635.144531 1335.3125 631.527344 1331.695312 630.554688 C 1326.398438 628.675781 1319.988281 631.867188 1318.527344 637.363281 C 1317.136719 641.058594 1319.480469 644.65625 1319.617188 648.332031 C 1319.351562 652.15625 1315.089844 654.632812 1311.597656 653.269531 C 1307.875 651.96875 1306.949219 647.605469 1306.121094 644.21875 C 1304.671875 637.421875 1307.4375 630.601562 1311.421875 625.1875 C 1303.523438 621.101562 1293.753906 621.035156 1286.25 626.070312 C 1278.082031 630.640625 1276.523438 640.6875 1270.109375 646.882812 C 1283.785156 660.519531 1297.351562 674.242188 1311.09375 687.804688 C 1319.511719 695.628906 1333.640625 694.910156 1342.019531 687.410156 C 1349.136719 681.390625 1352.175781 671.3125 1350.078125 662.296875 C 1349.851562 660.160156 1348.726562 657.746094 1350.050781 655.746094 C 1351.539062 653.980469 1353.527344 652.726562 1355.246094 651.1875 C 1365.820312 642.441406 1369.925781 626.570312 1364.4375 613.910156 C 1361.457031 606.359375 1355.203125 600.265625 1347.546875 597.589844 C 1343.722656 596.328125 1343.242188 591 1345.917969 588.367188 C 1353.367188 577.972656 1351.96875 561.804688 1341.445312 553.945312 C 1338.046875 550.804688 1333.226562 550.398438 1329.339844 548.179688 C 1326.121094 545.335938 1327.9375 541.292969 1329.253906 538.054688 C 1333.597656 527.011719 1328.65625 513.007812 1317.6875 507.980469 C 1312.796875 505.28125 1307.152344 505.519531 1301.753906 505.453125 Z M 1301.753906 505.453125 " fill-opacity="1" fill-rule="nonzero"/></g></g></g><g clip-path="url(#494f19e769)"><g clip-path="url(#401bd0dc3c)"><g clip-path="url(#5c48aec670)"><path fill="#4a6f73" d="M 1014.660156 372.019531 C 1011.390625 374.320312 1009.621094 378.695312 1010.675781 382.601562 C 1010.917969 383.644531 1011.347656 385.046875 1010.222656 385.765625 C 1007.367188 387.804688 1005.042969 390.667969 1004.191406 394.125 C 1002.503906 400.046875 1005.578125 407.21875 1011.570312 409.277344 C 1013.128906 409.675781 1013.660156 411.824219 1012.585938 412.972656 C 1009.785156 416.804688 1009.699219 422.570312 1012.929688 426.179688 C 1014.253906 427.808594 1016.160156 428.769531 1018.148438 429.332031 C 1019.691406 429.59375 1020.605469 431.457031 1019.808594 432.820312 C 1017.578125 437.414062 1018.484375 444.292969 1023.53125 446.585938 C 1025.566406 447.726562 1027.929688 447.53125 1030.171875 447.613281 C 1031.722656 447.746094 1032.078125 449.574219 1032.835938 450.625 C 1032.632812 447.070312 1033.75 443.558594 1035.839844 440.695312 C 1032.992188 434.277344 1035.671875 426.113281 1041.804688 422.667969 C 1043.871094 421.707031 1046.238281 424.375 1044.9375 426.304688 C 1043.453125 427.800781 1041.480469 428.890625 1040.617188 430.917969 C 1038.992188 433.917969 1039.601562 437.554688 1041.207031 440.421875 C 1041.949219 441.890625 1040.414062 443.050781 1039.679688 444.132812 C 1037.152344 447.296875 1037.390625 452.054688 1039.796875 455.226562 C 1042.035156 454.976562 1043.324219 457.148438 1045.320312 457.726562 C 1049.558594 459.390625 1054.542969 457.722656 1057.40625 454.308594 C 1058.242188 453.191406 1059.960938 453.066406 1060.925781 454.105469 C 1062.222656 456.054688 1062.96875 458.5 1065.015625 459.871094 C 1068.96875 462.824219 1074.921875 462.34375 1078.449219 458.929688 C 1079.550781 457.605469 1081.230469 456.714844 1082.9375 457.441406 C 1088.800781 459.300781 1095.328125 454.917969 1096.417969 449 C 1097.222656 445.457031 1095.859375 441.625 1093.167969 439.230469 C 1087.226562 433.414062 1081.488281 427.371094 1075.453125 421.664062 C 1073.042969 420.949219 1071.464844 418.734375 1069.011719 418.109375 C 1064.734375 416.746094 1059.835938 418.542969 1057.105469 422.023438 C 1054.386719 425.347656 1053.460938 430.195312 1055.285156 434.167969 C 1059.65625 431.917969 1065.652344 432.21875 1068.945312 436.203125 C 1070.394531 437.996094 1068.019531 440.882812 1065.988281 439.894531 C 1064.609375 438.988281 1063.304688 437.703125 1061.546875 437.679688 C 1057.890625 437.304688 1054.507812 440.824219 1055.027344 444.464844 C 1055.101562 446.285156 1056.660156 447.476562 1057.367188 449.027344 C 1057.84375 451.023438 1055.199219 452.957031 1053.519531 451.613281 C 1049.503906 448.273438 1049.027344 441.984375 1051.8125 437.714844 C 1048.773438 432.65625 1048.945312 426.035156 1052.066406 421.058594 C 1054.980469 415.851562 1060.875 412.6875 1066.804688 412.84375 C 1058.640625 404.746094 1050.511719 396.597656 1042.398438 388.453125 C 1041.835938 394.535156 1038.558594 400.503906 1033.085938 403.46875 C 1030.527344 404.746094 1027.714844 406.011719 1024.789062 405.804688 C 1022.59375 405.363281 1022.429688 401.9375 1024.429688 401.167969 C 1026.339844 400.699219 1028.332031 400.429688 1030.089844 399.476562 C 1033.828125 397.699219 1036.566406 394.078125 1037.308594 390.011719 C 1037.890625 387.078125 1037.777344 383.625 1035.59375 381.34375 C 1032.726562 378.429688 1029.832031 375.546875 1026.921875 372.671875 C 1023.722656 369.472656 1018.238281 369.421875 1014.660156 372.019531 Z M 1014.660156 372.019531 " fill-opacity="1" fill-rule="nonzero"/></g></g></g><g clip-path="url(#48e94168fc)"><g clip-path="url(#9d0e427c6e)"><g clip-path="url(#149ee22085)"><path fill="#4a6f73" d="M 1094.441406 361.671875 C 1092.8125 361.601562 1092.414062 359.722656 1091.644531 358.613281 C 1091.898438 362.164062 1090.753906 365.679688 1088.675781 368.542969 C 1091.410156 375.019531 1089.003906 383.171875 1082.929688 386.835938 C 1080.882812 388.078125 1078.25 385.414062 1079.519531 383.371094 C 1080.847656 381.910156 1082.761719 380.976562 1083.65625 379.136719 C 1085.488281 376.125 1085.042969 372.289062 1083.355469 369.324219 C 1082.480469 367.816406 1084.078125 366.582031 1084.851562 365.460938 C 1087.347656 362.296875 1087.097656 357.585938 1084.734375 354.414062 C 1083.355469 354.507812 1082.214844 353.824219 1081.203125 352.972656 C 1077.023438 349.996094 1070.871094 351.089844 1067.554688 354.871094 C 1066.710938 356.136719 1064.851562 356.816406 1063.660156 355.585938 C 1062.199219 353.539062 1061.457031 350.839844 1059.132812 349.507812 C 1054.828125 346.554688 1048.589844 347.589844 1045.214844 351.492188 C 1043.925781 353.285156 1041.785156 351.960938 1040.070312 351.832031 C 1033.914062 351.101562 1028.003906 356.679688 1028.152344 362.832031 C 1028.269531 366.089844 1029.691406 369.328125 1032.121094 371.523438 C 1038.46875 377.824219 1044.769531 384.1875 1051.113281 390.492188 C 1054.582031 393.929688 1060.382812 393.972656 1064.277344 391.238281 C 1068.855469 388.179688 1070.988281 381.8125 1068.734375 376.703125 C 1064.398438 378.867188 1058.589844 378.671875 1055.195312 374.875 C 1053.496094 373.191406 1055.652344 370.144531 1057.800781 370.867188 C 1059.25 371.714844 1060.511719 373.117188 1062.320312 373.167969 C 1065.949219 373.613281 1069.378906 370.183594 1068.964844 366.550781 C 1068.910156 364.738281 1067.5 363.460938 1066.644531 361.988281 C 1065.960938 359.851562 1068.953125 357.742188 1070.644531 359.390625 C 1074.507812 362.816406 1074.878906 368.96875 1072.152344 373.199219 C 1076.375 379.929688 1074.214844 389.3125 1068.1875 394.203125 C 1065.5 396.496094 1062.007812 397.515625 1058.5625 397.964844 C 1064.984375 404.367188 1071.382812 410.792969 1077.8125 417.195312 C 1079.671875 415.082031 1080.605469 412.320312 1082.535156 410.257812 C 1085.183594 407.402344 1088.960938 405.601562 1092.863281 405.476562 C 1096.574219 405.394531 1100.234375 406.777344 1103.160156 409.019531 C 1107.550781 407.886719 1112.875 410.15625 1114.101562 414.738281 C 1114.460938 416.875 1111.425781 417.960938 1110.0625 416.523438 C 1109.066406 415.484375 1108.363281 413.984375 1106.863281 413.582031 C 1104.667969 412.800781 1102.007812 414.125 1101.398438 416.40625 C 1100.824219 417.941406 1101.796875 419.433594 1101.851562 420.957031 C 1101.742188 422.546875 1099.972656 423.574219 1098.523438 423.007812 C 1096.980469 422.46875 1096.59375 420.65625 1096.253906 419.25 C 1095.652344 416.429688 1096.796875 413.601562 1098.453125 411.355469 C 1095.171875 409.660156 1091.121094 409.628906 1088.007812 411.722656 C 1084.617188 413.617188 1083.96875 417.785156 1081.308594 420.355469 C 1086.984375 426.015625 1092.613281 431.707031 1098.316406 437.335938 C 1101.808594 440.582031 1107.671875 440.285156 1111.148438 437.171875 C 1114.101562 434.675781 1115.363281 430.492188 1114.492188 426.753906 C 1114.398438 425.867188 1113.929688 424.863281 1114.480469 424.035156 C 1115.097656 423.300781 1115.921875 422.78125 1116.636719 422.144531 C 1121.023438 418.515625 1122.726562 411.929688 1120.449219 406.675781 C 1119.210938 403.542969 1116.617188 401.011719 1113.441406 399.902344 C 1111.855469 399.378906 1111.65625 397.167969 1112.765625 396.078125 C 1115.855469 391.761719 1115.277344 385.054688 1110.910156 381.792969 C 1109.5 380.492188 1107.5 380.320312 1105.886719 379.402344 C 1104.550781 378.222656 1105.304688 376.542969 1105.851562 375.199219 C 1107.652344 370.617188 1105.601562 364.808594 1101.050781 362.722656 C 1099.019531 361.601562 1096.679688 361.699219 1094.441406 361.671875 Z M 1094.441406 361.671875 " fill-opacity="1" fill-rule="nonzero"/></g></g></g><g clip-path="url(#44f2c41edf)"><g clip-path="url(#d8d68e1e32)"><g clip-path="url(#98b084f159)"><path fill="#c0f0f7" d="M 60.070312 66.117188 C 56.800781 68.421875 55.03125 72.796875 56.085938 76.703125 C 56.328125 77.746094 56.757812 79.148438 55.636719 79.863281 C 52.777344 81.90625 50.453125 84.765625 49.601562 88.222656 C 47.917969 94.148438 50.988281 101.320312 56.980469 103.378906 C 58.539062 103.773438 59.070312 105.921875 57.996094 107.070312 C 55.195312 110.902344 55.109375 116.671875 58.339844 120.28125 C 59.664062 121.910156 61.570312 122.867188 63.558594 123.429688 C 65.101562 123.695312 66.015625 125.558594 65.21875 126.917969 C 62.992188 131.511719 63.894531 138.394531 68.941406 140.6875 C 70.980469 141.824219 73.339844 141.628906 75.585938 141.714844 C 77.132812 141.84375 77.488281 143.675781 78.246094 144.722656 C 78.042969 141.167969 79.160156 137.660156 81.25 134.792969 C 78.402344 128.378906 81.082031 120.210938 87.214844 116.769531 C 89.28125 115.808594 91.648438 118.472656 90.347656 120.40625 C 88.863281 121.898438 86.890625 122.992188 86.027344 125.015625 C 84.402344 128.019531 85.011719 131.65625 86.617188 134.519531 C 87.359375 135.988281 85.824219 137.152344 85.089844 138.230469 C 82.5625 141.394531 82.800781 146.152344 85.207031 149.324219 C 87.445312 149.074219 88.734375 151.246094 90.730469 151.824219 C 94.96875 153.492188 99.957031 151.820312 102.816406 148.40625 C 103.65625 147.289062 105.371094 147.167969 106.335938 148.203125 C 107.632812 150.15625 108.378906 152.601562 110.425781 153.96875 C 114.378906 156.925781 120.332031 156.441406 123.859375 153.027344 C 124.960938 151.703125 126.644531 150.816406 128.351562 151.539062 C 134.210938 153.398438 140.738281 149.015625 141.828125 143.097656 C 142.632812 139.554688 141.269531 135.726562 138.578125 133.328125 C 132.636719 127.511719 126.898438 121.472656 120.863281 115.765625 C 118.457031 115.046875 116.875 112.832031 114.421875 112.210938 C 110.144531 110.84375 105.246094 112.640625 102.519531 116.121094 C 99.796875 119.445312 98.871094 124.292969 100.695312 128.269531 C 105.066406 126.019531 111.066406 126.320312 114.355469 130.300781 C 115.804688 132.097656 113.429688 134.984375 111.398438 133.992188 C 110.019531 133.089844 108.714844 131.804688 106.957031 131.777344 C 103.300781 131.402344 99.921875 134.925781 100.4375 138.5625 C 100.511719 140.386719 102.070312 141.578125 102.777344 143.128906 C 103.253906 145.125 100.613281 147.058594 98.929688 145.714844 C 94.914062 142.375 94.4375 136.085938 97.222656 131.816406 C 94.183594 126.757812 94.359375 120.132812 97.480469 115.15625 C 100.390625 109.953125 106.285156 106.785156 112.214844 106.941406 C 104.050781 98.84375 95.925781 90.699219 87.808594 82.550781 C 87.246094 88.632812 83.96875 94.605469 78.5 97.570312 C 75.9375 98.84375 73.125 100.113281 70.203125 99.902344 C 68.003906 99.460938 67.839844 96.035156 69.839844 95.269531 C 71.75 94.796875 73.742188 94.53125 75.5 93.574219 C 79.238281 91.796875 81.976562 88.175781 82.722656 84.109375 C 83.300781 81.179688 83.1875 77.722656 81.003906 75.441406 C 78.140625 72.527344 75.242188 69.644531 72.332031 66.769531 C 69.132812 63.574219 63.648438 63.523438 60.070312 66.117188 Z M 60.070312 66.117188 " fill-opacity="1" fill-rule="nonzero"/></g></g></g><g clip-path="url(#d5ee11b7bd)"><g clip-path="url(#086bb302fe)"><g clip-path="url(#6bc183b569)"><path fill="#c0f0f7" d="M 139.851562 55.773438 C 138.222656 55.703125 137.824219 53.820312 137.054688 52.710938 C 137.308594 56.261719 136.164062 59.78125 134.085938 62.640625 C 136.820312 69.121094 134.417969 77.269531 128.34375 80.9375 C 126.292969 82.175781 123.660156 79.511719 124.933594 77.46875 C 126.257812 76.007812 128.171875 75.078125 129.066406 73.234375 C 130.898438 70.222656 130.453125 66.390625 128.765625 63.425781 C 127.890625 61.914062 129.488281 60.683594 130.265625 59.5625 C 132.757812 56.398438 132.507812 51.6875 130.144531 48.515625 C 128.765625 48.605469 127.625 47.925781 126.613281 47.070312 C 122.433594 44.09375 116.28125 45.191406 112.964844 48.96875 C 112.121094 50.234375 110.261719 50.914062 109.074219 49.6875 C 107.609375 47.636719 106.867188 44.941406 104.542969 43.609375 C 100.238281 40.65625 94 41.691406 90.625 45.589844 C 89.335938 47.386719 87.195312 46.0625 85.480469 45.929688 C 79.324219 45.199219 73.414062 50.78125 73.5625 56.929688 C 73.679688 60.191406 75.101562 63.425781 77.53125 65.625 C 83.882812 71.925781 90.179688 78.289062 96.523438 84.59375 C 99.992188 88.027344 105.792969 88.074219 109.6875 85.335938 C 114.269531 82.28125 116.398438 75.910156 114.144531 70.800781 C 109.808594 72.964844 104 72.773438 100.605469 68.972656 C 98.90625 67.292969 101.0625 64.246094 103.210938 64.964844 C 104.664062 65.816406 105.921875 67.21875 107.730469 67.265625 C 111.359375 67.710938 114.789062 64.28125 114.375 60.648438 C 114.320312 58.839844 112.910156 57.558594 112.054688 56.089844 C 111.371094 53.953125 114.363281 51.839844 116.054688 53.492188 C 119.917969 56.917969 120.292969 63.070312 117.5625 67.300781 C 121.785156 74.03125 119.628906 83.410156 113.597656 88.300781 C 110.910156 90.59375 107.417969 91.613281 103.972656 92.0625 C 110.394531 98.46875 116.792969 104.890625 123.222656 111.296875 C 125.082031 109.179688 126.015625 106.417969 127.945312 104.355469 C 130.59375 101.503906 134.371094 99.703125 138.273438 99.578125 C 141.984375 99.496094 145.644531 100.875 148.570312 103.121094 C 152.960938 101.984375 158.285156 104.257812 159.511719 108.839844 C 159.875 110.976562 156.835938 112.058594 155.472656 110.625 C 154.476562 109.585938 153.773438 108.085938 152.273438 107.679688 C 150.078125 106.902344 147.417969 108.226562 146.808594 110.503906 C 146.234375 112.039062 147.207031 113.53125 147.261719 115.058594 C 147.152344 116.644531 145.382812 117.671875 143.9375 117.105469 C 142.390625 116.566406 142.007812 114.757812 141.664062 113.351562 C 141.0625 110.53125 142.207031 107.699219 143.863281 105.453125 C 140.585938 103.757812 136.53125 103.730469 133.417969 105.820312 C 130.027344 107.71875 129.378906 111.886719 126.71875 114.457031 C 132.394531 120.113281 138.023438 125.808594 143.726562 131.4375 C 147.21875 134.683594 153.082031 134.386719 156.558594 131.273438 C 159.511719 128.773438 160.773438 124.59375 159.902344 120.851562 C 159.808594 119.964844 159.339844 118.964844 159.890625 118.132812 C 160.507812 117.402344 161.332031 116.878906 162.046875 116.242188 C 166.433594 112.613281 168.136719 106.027344 165.859375 100.773438 C 164.625 97.640625 162.027344 95.113281 158.851562 94.003906 C 157.265625 93.480469 157.066406 91.269531 158.175781 90.175781 C 161.265625 85.863281 160.6875 79.152344 156.320312 75.894531 C 154.910156 74.589844 152.910156 74.421875 151.296875 73.5 C 149.960938 72.320312 150.714844 70.644531 151.261719 69.300781 C 153.0625 64.71875 151.011719 58.90625 146.460938 56.820312 C 144.433594 55.699219 142.089844 55.800781 139.851562 55.773438 Z M 139.851562 55.773438 " fill-opacity="1" fill-rule="nonzero"/></g></g></g><g clip-path="url(#0ff26ec5a6)"><g clip-path="url(#9ea8f50da3)"><g clip-path="url(#45dc49259b)"><path fill="#c0f0f7" d="M 615.257812 681.183594 C 602.640625 690.074219 595.816406 706.953125 599.875 722.019531 C 600.8125 726.046875 602.472656 731.457031 598.140625 734.222656 C 587.113281 742.097656 578.144531 753.136719 574.867188 766.46875 C 568.359375 789.328125 580.210938 816.996094 603.332031 824.9375 C 609.339844 826.464844 611.394531 834.753906 607.25 839.191406 C 596.445312 853.96875 596.113281 876.226562 608.570312 890.148438 C 613.679688 896.429688 621.042969 900.136719 628.714844 902.300781 C 634.664062 903.316406 638.195312 910.507812 635.109375 915.761719 C 626.519531 933.480469 630.007812 960.035156 649.476562 968.875 C 657.335938 973.265625 666.449219 972.519531 675.105469 972.835938 C 681.085938 973.347656 682.457031 980.410156 685.382812 984.449219 C 684.585938 970.738281 688.898438 957.195312 696.960938 946.140625 C 685.980469 921.386719 696.324219 889.886719 719.976562 876.605469 C 727.949219 872.894531 737.082031 883.175781 732.066406 890.632812 C 726.339844 896.390625 718.722656 900.609375 715.398438 908.417969 C 709.128906 920 711.484375 934.035156 717.671875 945.089844 C 720.535156 950.75 714.617188 955.238281 711.785156 959.40625 C 702.03125 971.613281 702.953125 989.96875 712.230469 1002.207031 C 720.863281 1001.238281 725.84375 1009.625 733.542969 1011.851562 C 749.898438 1018.28125 769.128906 1011.835938 780.171875 998.667969 C 783.402344 994.355469 790.019531 993.878906 793.742188 997.882812 C 798.757812 1005.410156 801.632812 1014.84375 809.523438 1020.121094 C 824.78125 1031.527344 847.742188 1029.667969 861.355469 1016.492188 C 865.605469 1011.386719 872.09375 1007.953125 878.679688 1010.75 C 901.289062 1017.925781 926.46875 1001.015625 930.683594 978.183594 C 933.785156 964.515625 928.519531 949.738281 918.136719 940.496094 C 895.214844 918.046875 873.082031 894.742188 849.796875 872.722656 C 840.503906 869.960938 834.410156 861.414062 824.945312 859.011719 C 808.449219 853.742188 789.546875 860.683594 779.015625 874.105469 C 768.519531 886.925781 764.953125 905.636719 771.984375 920.96875 C 788.847656 912.285156 811.992188 913.445312 824.6875 928.816406 C 830.273438 935.734375 821.113281 946.871094 813.285156 943.050781 C 807.953125 939.566406 802.929688 934.605469 796.152344 934.511719 C 782.035156 933.0625 768.996094 946.652344 770.996094 960.683594 C 771.28125 967.714844 777.285156 972.3125 780.015625 978.292969 C 781.863281 985.996094 771.660156 993.457031 765.175781 988.269531 C 749.679688 975.386719 747.847656 951.121094 758.589844 934.65625 C 746.863281 915.132812 747.535156 889.585938 759.578125 870.378906 C 770.804688 850.300781 793.554688 838.085938 816.433594 838.691406 C 784.933594 807.445312 753.578125 776.023438 722.269531 744.585938 C 720.09375 768.050781 707.460938 791.089844 686.347656 802.527344 C 676.46875 807.445312 665.617188 812.339844 654.335938 811.535156 C 645.855469 809.832031 645.234375 796.609375 652.9375 793.65625 C 660.320312 791.839844 668.003906 790.804688 674.78125 787.117188 C 689.210938 780.257812 699.773438 766.292969 702.640625 750.605469 C 704.882812 739.296875 704.4375 725.964844 696.019531 717.164062 C 684.960938 705.917969 673.78125 694.796875 662.566406 683.707031 C 650.210938 671.371094 629.054688 671.175781 615.257812 681.183594 Z M 615.257812 681.183594 " fill-opacity="1" fill-rule="nonzero"/></g></g></g><g clip-path="url(#b8a6f529af)"><g clip-path="url(#2a0f6e492e)"><g clip-path="url(#3023ecc0b1)"><path fill="#c0f0f7" d="M 923.050781 641.269531 C 916.765625 641.003906 915.234375 633.746094 912.265625 629.46875 C 913.234375 643.164062 908.828125 656.734375 900.8125 667.773438 C 911.359375 692.765625 902.082031 724.214844 878.648438 738.359375 C 870.742188 743.144531 860.589844 732.867188 865.492188 724.980469 C 870.613281 719.347656 877.992188 715.753906 881.449219 708.644531 C 888.507812 697.03125 886.789062 682.234375 880.285156 670.796875 C 876.914062 664.972656 883.074219 660.21875 886.0625 655.890625 C 895.6875 643.6875 894.71875 625.507812 885.597656 613.273438 C 880.285156 613.625 875.878906 610.996094 871.984375 607.703125 C 855.851562 596.21875 832.117188 600.449219 819.324219 615.023438 C 816.066406 619.910156 808.890625 622.53125 804.304688 617.792969 C 798.660156 609.886719 795.792969 599.480469 786.835938 594.34375 C 770.226562 582.953125 746.15625 586.945312 733.140625 601.996094 C 728.15625 608.917969 719.902344 603.808594 713.285156 603.300781 C 689.535156 600.484375 666.738281 622.015625 667.3125 645.746094 C 667.757812 658.316406 673.246094 670.804688 682.617188 679.28125 C 707.113281 703.59375 731.414062 728.136719 755.894531 752.464844 C 769.269531 765.714844 791.65625 765.894531 806.675781 755.332031 C 824.347656 743.546875 832.574219 718.964844 823.871094 699.253906 C 807.152344 707.605469 784.738281 706.859375 771.640625 692.207031 C 765.089844 685.714844 773.40625 673.960938 781.691406 676.742188 C 787.289062 680.019531 792.15625 685.429688 799.128906 685.621094 C 813.132812 687.339844 826.367188 674.105469 824.757812 660.085938 C 824.554688 653.101562 819.113281 648.171875 815.816406 642.492188 C 813.175781 634.253906 824.722656 626.105469 831.25 632.46875 C 846.152344 645.691406 847.585938 669.421875 837.054688 685.75 C 853.347656 711.714844 845.027344 747.90625 821.765625 766.773438 C 811.390625 775.617188 797.921875 779.554688 784.636719 781.285156 C 809.40625 805.996094 834.09375 830.777344 858.898438 855.488281 C 866.074219 847.324219 869.667969 836.667969 877.113281 828.714844 C 887.332031 817.707031 901.914062 810.753906 916.96875 810.273438 C 931.285156 809.960938 945.398438 815.285156 956.691406 823.941406 C 973.636719 819.566406 994.175781 828.332031 998.898438 846.011719 C 1000.296875 854.25 988.574219 858.4375 983.324219 852.898438 C 979.476562 848.886719 976.769531 843.101562 970.980469 841.539062 C 962.503906 838.53125 952.238281 843.640625 949.898438 852.4375 C 947.675781 858.355469 951.425781 864.113281 951.648438 870 C 951.21875 876.121094 944.394531 880.085938 938.808594 877.90625 C 932.847656 875.820312 931.367188 868.835938 930.042969 863.414062 C 927.71875 852.53125 932.144531 841.617188 938.523438 832.945312 C 925.878906 826.410156 910.242188 826.296875 898.230469 834.363281 C 885.152344 841.679688 882.65625 857.761719 872.390625 867.679688 C 894.28125 889.507812 916 911.476562 937.996094 933.191406 C 951.472656 945.714844 974.09375 944.566406 987.507812 932.558594 C 998.898438 922.917969 1003.765625 906.789062 1000.410156 892.355469 C 1000.042969 888.933594 998.242188 885.070312 1000.363281 881.871094 C 1002.75 879.039062 1005.929688 877.03125 1008.683594 874.570312 C 1025.609375 860.570312 1032.179688 835.164062 1023.398438 814.894531 C 1018.625 802.804688 1008.613281 793.050781 996.355469 788.769531 C 990.234375 786.75 989.464844 778.222656 993.746094 774.007812 C 1005.675781 757.367188 1003.433594 731.480469 986.589844 718.898438 C 981.148438 713.875 973.433594 713.21875 967.210938 709.671875 C 962.058594 705.121094 964.964844 698.644531 967.074219 693.460938 C 974.027344 675.785156 966.113281 653.367188 948.554688 645.320312 C 940.722656 640.996094 931.6875 641.378906 923.050781 641.269531 Z M 923.050781 641.269531 " fill-opacity="1" fill-rule="nonzero"/></g></g></g><g clip-path="url(#ce071f0bdb)"><g clip-path="url(#e3b7bd602f)"><g clip-path="url(#fd903b23bb)"><path fill="#6da7cc" d="M 519.734375 -142.378906 C 507.117188 -133.488281 500.292969 -116.609375 504.351562 -101.542969 C 505.289062 -97.519531 506.945312 -92.105469 502.617188 -89.34375 C 491.589844 -81.464844 482.621094 -70.425781 479.34375 -57.09375 C 472.835938 -34.234375 484.6875 -6.566406 507.804688 1.375 C 513.816406 2.902344 515.871094 11.191406 511.722656 15.628906 C 500.917969 30.40625 500.585938 52.664062 513.046875 66.585938 C 518.15625 72.867188 525.519531 76.574219 533.1875 78.738281 C 539.140625 79.753906 542.671875 86.945312 539.585938 92.195312 C 530.992188 109.917969 534.480469 136.46875 553.953125 145.3125 C 561.8125 149.703125 570.925781 148.957031 579.582031 149.273438 C 585.5625 149.785156 586.929688 156.847656 589.859375 160.886719 C 589.0625 147.175781 593.375 133.632812 601.4375 122.578125 C 590.457031 97.824219 600.796875 66.324219 624.453125 53.039062 C 632.425781 49.332031 641.558594 59.613281 636.542969 67.070312 C 630.816406 72.828125 623.199219 77.046875 619.871094 84.855469 C 613.605469 96.4375 615.960938 110.472656 622.148438 121.527344 C 625.011719 127.1875 619.09375 131.675781 616.261719 135.84375 C 606.507812 148.050781 607.429688 166.40625 616.707031 178.644531 C 625.339844 177.675781 630.320312 186.0625 638.019531 188.289062 C 654.375 194.71875 673.605469 188.273438 684.648438 175.105469 C 687.878906 170.792969 694.496094 170.316406 698.21875 174.320312 C 703.234375 181.847656 706.109375 191.28125 714 196.558594 C 729.257812 207.964844 752.214844 206.105469 765.832031 192.929688 C 770.082031 187.824219 776.570312 184.390625 783.15625 187.1875 C 805.761719 194.363281 830.945312 177.453125 835.160156 154.621094 C 838.261719 140.953125 832.996094 126.175781 822.613281 116.933594 C 799.6875 94.484375 777.554688 71.179688 754.269531 49.160156 C 744.980469 46.398438 738.886719 37.851562 729.421875 35.449219 C 712.925781 30.179688 694.023438 37.117188 683.492188 50.542969 C 672.992188 63.363281 669.429688 82.074219 676.460938 97.40625 C 693.324219 88.722656 716.46875 89.882812 729.164062 105.253906 C 734.75 112.171875 725.585938 123.308594 717.761719 119.488281 C 712.429688 116.003906 707.40625 111.042969 700.625 110.949219 C 686.511719 109.5 673.46875 123.089844 675.472656 137.121094 C 675.757812 144.152344 681.761719 148.75 684.492188 154.730469 C 686.339844 162.429688 676.136719 169.894531 669.652344 164.707031 C 654.152344 151.824219 652.324219 127.558594 663.066406 111.09375 C 651.339844 91.570312 652.011719 66.023438 664.050781 46.816406 C 675.28125 26.738281 698.03125 14.523438 720.910156 15.125 C 689.410156 -16.117188 658.054688 -47.539062 626.746094 -78.976562 C 624.570312 -55.511719 611.933594 -32.472656 590.824219 -21.035156 C 580.945312 -16.117188 570.09375 -11.222656 558.8125 -12.027344 C 550.332031 -13.730469 549.710938 -26.953125 557.414062 -29.90625 C 564.792969 -31.722656 572.480469 -32.757812 579.257812 -36.445312 C 593.6875 -43.304688 604.25 -57.269531 607.117188 -72.957031 C 609.355469 -84.265625 608.914062 -97.597656 600.496094 -106.398438 C 589.4375 -117.648438 578.257812 -128.765625 567.039062 -139.855469 C 554.6875 -152.191406 533.527344 -152.386719 519.734375 -142.378906 Z M 519.734375 -142.378906 " fill-opacity="1" fill-rule="nonzero"/></g></g></g><g clip-path="url(#06fb2424f4)"><g clip-path="url(#21737a9290)"><g clip-path="url(#e68233adf4)"><path fill="#6da7cc" d="M 827.527344 -182.292969 C 821.242188 -182.558594 819.710938 -189.816406 816.742188 -194.097656 C 817.710938 -180.398438 813.304688 -166.828125 805.285156 -155.789062 C 815.835938 -130.796875 806.558594 -99.347656 783.125 -85.203125 C 775.21875 -80.417969 765.066406 -90.695312 769.96875 -98.582031 C 775.089844 -104.214844 782.46875 -107.808594 785.921875 -114.921875 C 792.984375 -126.53125 791.265625 -141.328125 784.761719 -152.765625 C 781.390625 -158.589844 787.546875 -163.34375 790.539062 -167.671875 C 800.164062 -179.875 799.195312 -198.054688 790.074219 -210.289062 C 784.761719 -209.9375 780.355469 -212.566406 776.457031 -215.859375 C 760.328125 -227.34375 736.59375 -223.113281 723.800781 -208.539062 C 720.542969 -203.652344 713.367188 -201.03125 708.78125 -205.769531 C 703.136719 -213.675781 700.269531 -224.082031 691.3125 -229.21875 C 674.703125 -240.609375 650.632812 -236.617188 637.613281 -221.566406 C 632.632812 -214.644531 624.378906 -219.753906 617.761719 -220.261719 C 594.007812 -223.078125 571.214844 -201.546875 571.789062 -177.816406 C 572.234375 -165.246094 577.722656 -152.757812 587.09375 -144.28125 C 611.589844 -119.96875 635.886719 -95.425781 660.367188 -71.097656 C 673.746094 -57.847656 696.128906 -57.667969 711.152344 -68.230469 C 728.824219 -80.019531 737.050781 -104.597656 728.347656 -124.308594 C 711.628906 -115.957031 689.214844 -116.703125 676.117188 -131.355469 C 669.566406 -137.847656 677.882812 -149.601562 686.167969 -146.820312 C 691.765625 -143.542969 696.632812 -138.132812 703.605469 -137.941406 C 717.609375 -136.222656 730.839844 -149.457031 729.234375 -163.476562 C 729.027344 -170.460938 723.589844 -175.390625 720.292969 -181.070312 C 717.648438 -189.308594 729.199219 -197.457031 735.726562 -191.09375 C 750.628906 -177.871094 752.0625 -154.140625 741.53125 -137.8125 C 757.824219 -111.847656 749.503906 -75.65625 726.242188 -56.789062 C 715.867188 -47.945312 702.394531 -44.007812 689.113281 -42.277344 C 713.882812 -17.566406 738.570312 7.214844 763.375 31.925781 C 770.550781 23.761719 774.144531 13.105469 781.589844 5.152344 C 791.808594 -5.855469 806.390625 -12.808594 821.441406 -13.289062 C 835.761719 -13.601562 849.875 -8.277344 861.167969 0.378906 C 878.113281 -4 898.652344 4.769531 903.375 22.449219 C 904.773438 30.6875 893.050781 34.871094 887.800781 29.335938 C 883.953125 25.324219 881.246094 19.539062 875.457031 17.976562 C 866.980469 14.96875 856.714844 20.078125 854.375 28.875 C 852.152344 34.792969 855.902344 40.550781 856.125 46.4375 C 855.695312 52.558594 848.871094 56.523438 843.285156 54.34375 C 837.320312 52.257812 835.84375 45.273438 834.519531 39.851562 C 832.195312 28.96875 836.621094 18.054688 843 9.382812 C 830.355469 2.847656 814.71875 2.734375 802.703125 10.800781 C 789.628906 18.117188 787.132812 34.199219 776.867188 44.117188 C 798.757812 65.945312 820.476562 87.914062 842.472656 109.628906 C 855.949219 122.152344 878.570312 121.003906 891.984375 108.996094 C 903.375 99.355469 908.242188 83.226562 904.886719 68.792969 C 904.519531 65.371094 902.71875 61.507812 904.839844 58.308594 C 907.226562 55.476562 910.40625 53.46875 913.160156 51.007812 C 930.085938 37.007812 936.65625 11.601562 927.871094 -8.667969 C 923.101562 -20.757812 913.089844 -30.511719 900.832031 -34.792969 C 894.710938 -36.8125 893.941406 -45.339844 898.222656 -49.554688 C 910.152344 -66.195312 907.910156 -92.082031 891.066406 -104.664062 C 885.625 -109.6875 877.90625 -110.34375 871.6875 -113.890625 C 866.53125 -118.441406 869.441406 -124.917969 871.546875 -130.101562 C 878.503906 -147.777344 870.589844 -170.195312 853.03125 -178.242188 C 845.199219 -182.566406 836.164062 -182.183594 827.527344 -182.292969 Z M 827.527344 -182.292969 " fill-opacity="1" fill-rule="nonzero"/></g></g></g><g clip-path="url(#fa9519edfb)"><g clip-path="url(#7650ab2ebb)"><g clip-path="url(#f632859949)"><path fill="#81c3c9" d="M 709.632812 342.851562 C 703.472656 347.195312 700.140625 355.4375 702.121094 362.796875 C 702.578125 364.761719 703.390625 367.40625 701.273438 368.757812 C 695.890625 372.605469 691.507812 377.996094 689.90625 384.507812 C 686.730469 395.671875 692.519531 409.183594 703.808594 413.0625 C 706.746094 413.808594 707.75 417.855469 705.722656 420.023438 C 700.445312 427.242188 700.285156 438.109375 706.367188 444.910156 C 708.863281 447.980469 712.460938 449.789062 716.207031 450.847656 C 719.113281 451.34375 720.835938 454.855469 719.332031 457.421875 C 715.132812 466.074219 716.835938 479.042969 726.347656 483.363281 C 730.1875 485.507812 734.636719 485.140625 738.863281 485.296875 C 741.785156 485.546875 742.453125 488.996094 743.882812 490.96875 C 743.496094 484.273438 745.601562 477.65625 749.539062 472.257812 C 744.175781 460.167969 749.226562 444.785156 760.78125 438.296875 C 764.671875 436.484375 769.132812 441.507812 766.683594 445.148438 C 763.886719 447.960938 760.167969 450.019531 758.542969 453.835938 C 755.480469 459.492188 756.632812 466.34375 759.652344 471.746094 C 761.050781 474.511719 758.164062 476.703125 756.777344 478.738281 C 752.015625 484.699219 752.464844 493.664062 756.996094 499.640625 C 761.210938 499.167969 763.644531 503.261719 767.40625 504.351562 C 775.394531 507.492188 784.785156 504.34375 790.179688 497.910156 C 791.757812 495.808594 794.988281 495.574219 796.808594 497.53125 C 799.257812 501.203125 800.660156 505.8125 804.515625 508.390625 C 811.96875 513.960938 823.179688 513.054688 829.828125 506.617188 C 831.90625 504.125 835.074219 502.445312 838.289062 503.8125 C 849.332031 507.320312 861.632812 499.058594 863.691406 487.90625 C 865.203125 481.234375 862.632812 474.015625 857.5625 469.5 C 846.363281 458.539062 835.554688 447.15625 824.183594 436.402344 C 819.644531 435.050781 816.667969 430.878906 812.046875 429.703125 C 803.988281 427.132812 794.757812 430.519531 789.613281 437.078125 C 784.488281 443.339844 782.746094 452.476562 786.179688 459.964844 C 794.414062 455.722656 805.71875 456.289062 811.921875 463.796875 C 814.648438 467.175781 810.175781 472.617188 806.351562 470.75 C 803.75 469.046875 801.292969 466.625 797.984375 466.578125 C 791.089844 465.871094 784.71875 472.507812 785.699219 479.359375 C 785.835938 482.796875 788.769531 485.042969 790.101562 487.960938 C 791.003906 491.722656 786.023438 495.367188 782.855469 492.835938 C 775.285156 486.542969 774.390625 474.691406 779.636719 466.648438 C 773.910156 457.113281 774.238281 444.636719 780.121094 435.257812 C 785.605469 425.449219 796.714844 419.484375 807.890625 419.777344 C 792.503906 404.519531 777.191406 389.171875 761.898438 373.820312 C 760.835938 385.277344 754.664062 396.53125 744.355469 402.117188 C 739.53125 404.519531 734.230469 406.910156 728.722656 406.515625 C 724.578125 405.683594 724.273438 399.226562 728.039062 397.785156 C 731.640625 396.894531 735.394531 396.390625 738.707031 394.589844 C 745.753906 391.242188 750.910156 384.421875 752.3125 376.757812 C 753.40625 371.234375 753.191406 364.722656 749.078125 360.425781 C 743.675781 354.933594 738.21875 349.5 732.738281 344.085938 C 726.707031 338.058594 716.371094 337.964844 709.632812 342.851562 Z M 709.632812 342.851562 " fill-opacity="1" fill-rule="nonzero"/></g></g></g><g clip-path="url(#85b2bb4b69)"><g clip-path="url(#ff3579ab9c)"><g clip-path="url(#74f20f2d65)"><path fill="#81c3c9" d="M 859.960938 323.359375 C 856.890625 323.226562 856.144531 319.683594 854.695312 317.59375 C 855.167969 324.285156 853.015625 330.910156 849.097656 336.300781 C 854.25 348.511719 849.71875 363.871094 838.273438 370.777344 C 834.414062 373.113281 829.457031 368.09375 831.847656 364.242188 C 834.351562 361.492188 837.957031 359.738281 839.640625 356.261719 C 843.089844 350.589844 842.25 343.367188 839.074219 337.78125 C 837.425781 334.933594 840.4375 332.613281 841.894531 330.5 C 846.597656 324.539062 846.125 315.660156 841.671875 309.683594 C 839.074219 309.855469 836.921875 308.574219 835.019531 306.964844 C 827.140625 301.355469 815.546875 303.421875 809.300781 310.539062 C 807.710938 312.925781 804.207031 314.207031 801.964844 311.894531 C 799.207031 308.03125 797.808594 302.949219 793.433594 300.4375 C 785.324219 294.875 773.566406 296.828125 767.207031 304.175781 C 764.773438 307.558594 760.742188 305.0625 757.511719 304.816406 C 745.910156 303.4375 734.777344 313.953125 735.058594 325.542969 C 735.277344 331.683594 737.957031 337.785156 742.53125 341.925781 C 754.496094 353.796875 766.363281 365.785156 778.320312 377.667969 C 784.855469 384.136719 795.785156 384.226562 803.121094 379.066406 C 811.753906 373.308594 815.773438 361.304688 811.523438 351.679688 C 803.355469 355.757812 792.410156 355.394531 786.011719 348.234375 C 782.8125 345.066406 786.875 339.324219 790.921875 340.683594 C 793.65625 342.285156 796.03125 344.925781 799.4375 345.019531 C 806.277344 345.859375 812.738281 339.394531 811.953125 332.546875 C 811.855469 329.136719 809.199219 326.730469 807.585938 323.957031 C 806.296875 319.929688 811.9375 315.953125 815.125 319.0625 C 822.40625 325.519531 823.105469 337.109375 817.960938 345.082031 C 825.917969 357.761719 821.855469 375.4375 810.492188 384.65625 C 805.425781 388.976562 798.847656 390.894531 792.359375 391.742188 C 804.457031 403.8125 816.515625 415.914062 828.628906 427.984375 C 832.132812 423.996094 833.890625 418.792969 837.523438 414.90625 C 842.515625 409.53125 849.636719 406.136719 856.988281 405.902344 C 863.984375 405.746094 870.875 408.347656 876.390625 412.574219 C 884.667969 410.4375 894.699219 414.71875 897.003906 423.355469 C 897.6875 427.378906 891.964844 429.421875 889.398438 426.71875 C 887.519531 424.757812 886.199219 421.933594 883.371094 421.171875 C 879.230469 419.703125 874.21875 422.195312 873.074219 426.492188 C 871.988281 429.382812 873.820312 432.195312 873.929688 435.070312 C 873.71875 438.0625 870.386719 439.996094 867.65625 438.933594 C 864.746094 437.914062 864.023438 434.503906 863.375 431.851562 C 862.242188 426.539062 864.402344 421.207031 867.519531 416.972656 C 861.34375 413.78125 853.707031 413.726562 847.839844 417.664062 C 841.453125 421.238281 840.230469 429.09375 835.21875 433.9375 C 845.910156 444.597656 856.519531 455.328125 867.261719 465.933594 C 873.84375 472.050781 884.890625 471.488281 891.441406 465.625 C 897.003906 460.917969 899.382812 453.039062 897.742188 445.988281 C 897.566406 444.320312 896.6875 442.429688 897.71875 440.867188 C 898.886719 439.488281 900.441406 438.503906 901.785156 437.304688 C 910.050781 430.464844 913.261719 418.054688 908.96875 408.15625 C 906.640625 402.253906 901.75 397.488281 895.761719 395.398438 C 892.773438 394.410156 892.398438 390.246094 894.488281 388.1875 C 900.316406 380.058594 899.21875 367.417969 890.992188 361.273438 C 888.335938 358.820312 884.566406 358.5 881.53125 356.765625 C 879.011719 354.542969 880.433594 351.382812 881.460938 348.847656 C 884.859375 340.214844 880.992188 329.269531 872.417969 325.335938 C 868.59375 323.222656 864.179688 323.410156 859.960938 323.359375 Z M 859.960938 323.359375 " fill-opacity="1" fill-rule="nonzero"/></g></g></g></svg>