<svg xmlns="http://www.w3.org/2000/svg" xmlns:xlink="http://www.w3.org/1999/xlink" width="500" zoomAndPan="magnify" viewBox="0 0 375 374.999991" height="500" preserveAspectRatio="xMidYMid meet" version="1.0"><defs><clipPath id="23b8617e2f"><path d="M 101 50.691406 L 331.351562 50.691406 L 331.351562 147 L 101 147 Z M 101 50.691406 " clip-rule="nonzero"/></clipPath><clipPath id="59933fc9e1"><path d="M 99 131 L 331.351562 131 L 331.351562 324.441406 L 99 324.441406 Z M 99 131 " clip-rule="nonzero"/></clipPath><clipPath id="1c7d99d575"><path d="M 43.351562 92 L 101 92 L 101 280 L 43.351562 280 Z M 43.351562 92 " clip-rule="nonzero"/></clipPath></defs><g clip-path="url(#23b8617e2f)"><path fill="#026b65" d="M 293.824219 58.589844 L 242.578125 50.691406 L 114.515625 62.871094 L 108.125 98.746094 L 117.046875 101.941406 L 108.183594 111.949219 L 105.890625 111.042969 L 101.429688 136.1875 L 121.265625 142.878906 L 139.714844 124.128906 L 329.339844 146.074219 L 331.207031 103.207031 Z M 132.359375 83.1875 C 132.121094 83.609375 131.816406 84.09375 131.457031 84.636719 C 130.191406 85.179688 128.863281 85.722656 127.65625 86.203125 L 121.871094 85.179688 L 121.207031 84.273438 C 121.144531 84.09375 121.085938 83.914062 120.964844 83.671875 L 122.59375 76.675781 C 122.835938 76.496094 123.074219 76.375 123.378906 76.195312 L 125.488281 75.953125 C 125.847656 75.894531 126.269531 75.894531 126.632812 75.894531 C 128.503906 75.894531 130.191406 76.4375 131.394531 77.519531 C 131.699219 77.761719 131.9375 78.003906 132.179688 78.304688 C 132.421875 79.269531 132.722656 81.078125 132.359375 83.1875 Z M 132.359375 83.1875 " fill-opacity="1" fill-rule="nonzero"/></g><path fill="#ffefef" d="M 149.785156 64.558594 L 128.621094 75.109375 L 114.9375 137.933594 L 112.402344 136.96875 L 128.382812 151.679688 L 147.3125 131.664062 L 189.335938 133.835938 L 203.929688 174.230469 L 229.371094 174.652344 L 245.351562 134.800781 L 287.375 134.074219 L 305.582031 154.695312 L 318.546875 143.542969 L 291.171875 64.316406 Z M 132.78125 121.234375 C 132.542969 121.65625 132.242188 122.136719 131.878906 122.679688 C 130.613281 123.222656 129.285156 123.765625 128.082031 124.25 L 122.292969 123.222656 L 121.628906 122.320312 C 121.570312 122.136719 121.507812 121.957031 121.386719 121.714844 L 123.015625 114.722656 C 123.257812 114.542969 123.496094 114.421875 123.800781 114.238281 L 125.910156 114 C 126.269531 113.9375 126.695312 113.9375 127.054688 113.9375 C 128.925781 113.9375 130.613281 114.480469 131.816406 115.566406 C 132.121094 115.808594 132.359375 116.046875 132.601562 116.351562 C 132.84375 117.316406 133.144531 119.125 132.78125 121.234375 Z M 133.386719 108.753906 L 124.523438 105.257812 L 132.121094 95.125 L 142.1875 98.746094 Z M 133.386719 108.753906 " fill-opacity="1" fill-rule="nonzero"/><g clip-path="url(#59933fc9e1)"><path fill="#ffefef" d="M 319.328125 145.953125 L 319.269531 145.773438 L 305.460938 159.097656 L 293.585938 184.722656 L 251.863281 186.652344 L 233.109375 176.523438 L 236.605469 174.832031 L 251.921875 184 L 292.316406 182.492188 L 302.929688 159.339844 L 286.832031 136.789062 L 246.132812 136.847656 L 229.613281 177.726562 L 203.507812 177.246094 L 188.375 135.824219 L 147.734375 134.316406 L 130.914062 156.324219 L 140.742188 179.839844 L 181.015625 182.792969 L 196.632812 174.171875 L 200.070312 175.980469 L 180.898438 185.324219 L 139.234375 181.886719 L 128.261719 155.902344 L 111.621094 138.65625 L 111.679688 136.667969 L 99.019531 131.785156 L 99.019531 160.605469 L 104.386719 176.160156 L 107.882812 171.519531 L 117.949219 175.136719 L 109.089844 185.144531 L 107.21875 184.421875 L 114.9375 206.667969 C 114.9375 206.667969 115.597656 206.789062 115.539062 206.609375 L 117.167969 199.613281 C 117.410156 199.433594 117.648438 199.3125 117.949219 199.132812 L 120.0625 198.890625 C 120.421875 198.832031 120.84375 198.832031 121.207031 198.832031 C 123.074219 198.832031 124.765625 199.375 125.96875 200.457031 C 126.269531 200.699219 126.511719 200.941406 126.753906 201.242188 C 126.996094 202.265625 127.296875 204.015625 126.933594 206.1875 C 126.695312 206.609375 126.390625 207.089844 126.03125 207.632812 C 124.765625 208.175781 123.4375 208.71875 122.230469 209.199219 L 121.6875 210.40625 L 123.136719 233.621094 L 124.34375 231.992188 L 134.410156 235.609375 L 125.546875 245.617188 L 123.800781 244.953125 L 124.765625 260.089844 L 147.675781 286.980469 L 167.03125 295.960938 L 167.03125 306.875 L 130.550781 324 L 291.777344 324.300781 L 261.570312 307.902344 L 259.21875 297.832031 L 273.207031 291.257812 L 299.734375 263.765625 L 304.617188 221.441406 L 311.972656 223.914062 L 327.953125 166.210938 L 331.628906 140.40625 Z M 118.011719 159.820312 C 117.769531 160.242188 117.46875 160.726562 117.105469 161.269531 C 115.839844 161.8125 114.515625 162.351562 113.308594 162.835938 L 107.519531 161.8125 L 106.855469 160.90625 C 106.796875 160.726562 106.738281 160.542969 106.617188 160.304688 L 108.242188 153.308594 C 108.484375 153.128906 108.726562 153.007812 109.027344 152.828125 L 111.136719 152.585938 C 111.5 152.527344 111.921875 152.527344 112.285156 152.527344 C 114.152344 152.527344 115.839844 153.066406 117.046875 154.152344 C 117.347656 154.394531 117.589844 154.636719 117.832031 154.9375 C 118.070312 155.902344 118.371094 157.710938 118.011719 159.820312 Z M 136.582031 258.941406 C 136.339844 259.363281 136.039062 259.847656 135.675781 260.390625 C 134.410156 260.933594 133.085938 261.476562 131.878906 261.957031 L 126.089844 260.933594 L 125.425781 260.027344 C 125.367188 259.847656 125.246094 259.667969 125.1875 259.425781 L 126.8125 252.429688 C 127.054688 252.25 127.296875 252.128906 127.597656 251.949219 L 129.707031 251.707031 C 130.070312 251.648438 130.492188 251.648438 130.855469 251.648438 C 132.722656 251.648438 134.410156 252.191406 135.617188 253.273438 C 135.917969 253.515625 136.160156 253.757812 136.402344 254.058594 C 136.582031 254.964844 136.882812 256.773438 136.582031 258.941406 Z M 136.941406 222.585938 C 136.882812 222.40625 136.824219 222.222656 136.703125 221.984375 L 138.328125 214.988281 C 138.570312 214.808594 138.8125 214.6875 139.113281 214.507812 L 141.222656 214.265625 C 141.585938 214.207031 142.007812 214.207031 142.371094 214.207031 C 144.238281 214.207031 145.925781 214.746094 147.132812 215.832031 C 147.433594 216.074219 147.675781 216.316406 147.917969 216.617188 C 148.15625 217.640625 148.460938 219.390625 148.097656 221.5625 C 147.855469 221.984375 147.554688 222.464844 147.191406 223.007812 C 145.925781 223.550781 144.601562 224.09375 143.394531 224.574219 L 137.605469 223.550781 Z M 152.136719 275.523438 L 143.273438 272.027344 L 150.929688 261.898438 L 161 265.515625 Z M 152.136719 275.523438 " fill-opacity="1" fill-rule="nonzero"/></g><path fill="#ffefef" d="M 322.765625 140.046875 L 318.546875 143.664062 L 319.269531 145.710938 L 322.707031 142.394531 Z M 322.765625 140.046875 " fill-opacity="1" fill-rule="nonzero"/><path fill="#d88ca6" d="M 222.4375 152.222656 L 221.894531 210.707031 L 209.65625 210.648438 C 222.5 195.636719 218.21875 152.222656 218.21875 152.222656 Z M 205.859375 254.722656 C 203.324219 253.214844 202.902344 253.09375 202.902344 253.09375 L 194.703125 253.09375 C 217.554688 275.101562 239.5625 253.09375 239.5625 253.09375 L 230.878906 253.09375 C 228.527344 255.144531 220.8125 264.066406 205.859375 254.722656 Z M 205.859375 254.722656 " fill-opacity="1" fill-rule="nonzero"/><path fill="#026b65" d="M 96.667969 81.320312 L 94.496094 93.621094 L 87.984375 91.027344 L 95.582031 80.898438 Z M 84.1875 121.414062 L 93.050781 111.40625 L 82.980469 107.789062 L 75.382812 117.917969 Z M 79.363281 83.25 C 80.570312 82.765625 81.894531 82.222656 83.160156 81.679688 C 83.523438 81.199219 83.824219 80.65625 84.066406 80.234375 C 84.429688 78.0625 84.125 76.316406 83.886719 75.289062 C 83.644531 75.050781 83.402344 74.746094 83.101562 74.507812 C 81.894531 73.480469 80.207031 72.878906 78.339844 72.878906 C 77.976562 72.878906 77.554688 72.878906 77.191406 72.9375 L 75.082031 73.179688 C 74.78125 73.359375 74.539062 73.542969 74.300781 73.664062 L 72.671875 80.65625 C 72.730469 80.898438 72.851562 81.078125 72.914062 81.257812 L 73.574219 82.164062 Z M 146.46875 119.847656 L 157.5625 127.445312 L 186.683594 129.375 L 198.441406 120.269531 L 182.707031 124.1875 L 158.347656 122.621094 Z M 232.6875 122.921875 L 244.445312 129.492188 L 273.566406 128.710938 L 284.417969 118.519531 L 269.105469 123.886719 L 244.6875 124.550781 Z M 160.097656 176.460938 L 171.492188 176.101562 L 177.761719 171.757812 L 170.886719 175.195312 L 160.097656 176.160156 L 147.011719 173.328125 Z M 289.304688 173.265625 L 276.21875 176.101562 L 265.425781 175.136719 L 258.554688 171.699219 L 264.824219 176.039062 L 276.21875 176.402344 Z M 193.316406 260.089844 L 210.863281 258.703125 L 233.652344 259.183594 L 261.871094 265.152344 L 262.113281 258.21875 L 244.082031 234.765625 L 225.753906 229.519531 L 195.96875 231.75 L 178.425781 251.648438 L 176.011719 264.488281 Z M 149.964844 156.925781 C 147.433594 155.417969 145.925781 154.03125 145.925781 154.03125 L 140.019531 154.03125 C 162.808594 175.980469 184.816406 154.03125 184.816406 154.03125 L 180.171875 154.03125 C 177.761719 156.082031 175.351562 157.53125 173.058594 158.554688 L 162.445312 160.726562 L 152.800781 158.917969 Z M 256.925781 157.167969 C 254.394531 155.660156 252.886719 154.273438 252.886719 154.273438 L 246.976562 154.273438 C 269.769531 176.21875 291.777344 154.273438 291.777344 154.273438 L 287.132812 154.273438 C 284.722656 156.324219 282.308594 157.769531 280.019531 158.796875 L 269.40625 160.964844 L 259.761719 159.15625 Z M 256.925781 157.167969 " fill-opacity="1" fill-rule="nonzero"/><g clip-path="url(#1c7d99d575)"><path fill="#ffefef" d="M 93.171875 198.769531 L 86.238281 195.996094 L 90.335938 190.511719 Z M 93.171875 247.789062 L 100.285156 250.621094 L 99.5625 239.289062 Z M 76.769531 243.6875 C 77.976562 243.207031 79.304688 242.664062 80.570312 242.121094 C 80.929688 241.636719 81.234375 241.097656 81.472656 240.675781 C 81.835938 238.503906 81.535156 236.753906 81.292969 235.730469 C 81.050781 235.488281 80.808594 235.1875 80.507812 234.945312 C 79.304688 233.921875 77.613281 233.316406 75.746094 233.316406 C 75.382812 233.316406 74.960938 233.316406 74.601562 233.378906 L 72.488281 233.621094 C 72.1875 233.800781 71.949219 233.980469 71.707031 234.101562 L 70.078125 241.097656 C 70.136719 241.335938 70.257812 241.519531 70.320312 241.699219 L 70.984375 242.601562 Z M 71.949219 279.925781 C 73.152344 279.441406 74.480469 278.898438 75.746094 278.355469 C 76.109375 277.875 76.410156 277.332031 76.648438 276.910156 C 77.011719 274.738281 76.710938 272.992188 76.46875 271.964844 C 76.226562 271.726562 75.988281 271.421875 75.6875 271.183594 C 74.480469 270.15625 72.792969 269.554688 70.921875 269.554688 C 70.5625 269.554688 70.136719 269.554688 69.777344 269.613281 L 67.667969 269.855469 C 67.363281 270.035156 67.125 270.21875 66.882812 270.339844 L 65.253906 277.332031 C 65.316406 277.574219 65.4375 277.753906 65.496094 277.933594 L 66.160156 278.839844 Z M 79.363281 212.15625 C 80.570312 211.671875 81.894531 211.128906 83.160156 210.585938 C 83.523438 210.105469 83.824219 209.5625 84.066406 209.140625 C 84.429688 206.96875 84.125 205.222656 83.886719 204.195312 C 83.644531 203.957031 83.402344 203.652344 83.101562 203.414062 C 81.894531 202.386719 80.207031 201.785156 78.339844 201.785156 C 77.976562 201.785156 77.554688 201.785156 77.191406 201.84375 L 75.082031 202.085938 C 74.78125 202.265625 74.539062 202.449219 74.300781 202.570312 L 72.671875 209.5625 C 72.730469 209.804688 72.851562 209.984375 72.914062 210.164062 L 73.574219 211.070312 Z M 70.199219 171.097656 C 71.40625 170.613281 72.730469 170.070312 73.996094 169.527344 C 74.359375 169.046875 74.660156 168.503906 74.902344 168.082031 C 75.261719 165.910156 74.960938 164.160156 74.722656 163.136719 C 74.480469 162.894531 74.238281 162.59375 73.9375 162.351562 C 72.730469 161.328125 71.042969 160.726562 69.175781 160.726562 C 68.8125 160.726562 68.390625 160.726562 68.027344 160.785156 L 65.917969 161.027344 C 65.617188 161.207031 65.375 161.386719 65.132812 161.507812 L 63.507812 168.5625 C 63.566406 168.804688 63.6875 168.984375 63.746094 169.167969 L 64.410156 170.070312 Z M 57.597656 102.785156 C 58.804688 102.300781 60.128906 101.757812 61.394531 101.214844 C 61.757812 100.734375 62.058594 100.191406 62.300781 99.769531 C 62.664062 97.597656 62.359375 95.851562 62.121094 94.824219 C 61.878906 94.585938 61.636719 94.28125 61.335938 94.042969 C 60.128906 93.015625 58.441406 92.414062 56.574219 92.414062 C 56.210938 92.414062 55.789062 92.414062 55.425781 92.472656 L 53.316406 92.714844 C 53.015625 92.894531 52.773438 93.078125 52.53125 93.199219 L 50.90625 100.191406 C 50.964844 100.433594 51.085938 100.613281 51.144531 100.792969 L 51.808594 101.699219 Z M 52.230469 195.09375 L 61.09375 185.082031 L 51.027344 181.464844 L 43.367188 191.59375 Z M 56.691406 236.332031 L 65.496094 226.324219 L 55.425781 222.707031 L 47.832031 232.835938 Z M 54.582031 128.226562 L 63.445312 118.21875 L 53.378906 114.601562 L 45.78125 124.730469 Z M 66.402344 141.070312 C 67.605469 140.585938 68.933594 140.046875 70.199219 139.503906 C 70.5625 139.019531 70.863281 138.476562 71.101562 138.054688 C 71.464844 135.882812 71.164062 134.136719 70.921875 133.109375 C 70.679688 132.871094 70.441406 132.570312 70.136719 132.328125 C 68.933594 131.300781 67.246094 130.699219 65.375 130.699219 C 65.015625 130.699219 64.589844 130.699219 64.230469 130.761719 L 62.121094 131 C 61.816406 131.183594 61.578125 131.363281 61.335938 131.484375 L 59.707031 138.476562 C 59.769531 138.71875 59.890625 138.898438 59.949219 139.082031 L 60.613281 139.984375 Z M 85.152344 152.101562 C 86.359375 151.621094 87.683594 151.078125 88.949219 150.535156 C 89.3125 150.054688 89.613281 149.511719 89.855469 149.089844 C 90.214844 146.917969 89.914062 145.167969 89.671875 144.144531 C 89.433594 143.902344 89.191406 143.601562 88.890625 143.359375 C 87.683594 142.335938 85.996094 141.734375 84.125 141.734375 C 83.765625 141.734375 83.34375 141.734375 82.980469 141.792969 L 80.871094 142.035156 C 80.570312 142.214844 80.328125 142.394531 80.085938 142.515625 L 78.460938 149.511719 C 78.519531 149.753906 78.640625 149.933594 78.699219 150.113281 L 79.363281 151.019531 Z M 85.152344 152.101562 " fill-opacity="1" fill-rule="nonzero"/></g><path fill="#026b65" d="M 229.613281 177.425781 L 246.132812 136.546875 L 286.832031 136.488281 L 302.871094 159.039062 L 292.257812 182.128906 L 251.921875 183.636719 L 236.609375 174.53125 L 233.109375 176.21875 L 251.863281 186.351562 L 293.585938 184.421875 L 305.460938 158.796875 L 322.707031 142.15625 L 322.765625 139.804688 L 305.523438 154.574219 L 287.3125 133.957031 L 245.289062 134.617188 L 229.3125 174.472656 L 203.867188 174.050781 L 189.277344 133.652344 L 147.3125 131.484375 L 128.382812 151.441406 L 111.679688 136.066406 L 111.621094 138.417969 L 128.261719 155.660156 L 139.234375 181.707031 L 180.898438 185.082031 L 200.007812 175.617188 L 196.574219 173.808594 L 180.957031 182.429688 L 140.621094 179.476562 L 130.855469 156.023438 L 147.675781 134.015625 L 188.375 135.523438 L 203.445312 176.945312 Z M 229.613281 177.425781 " fill-opacity="1" fill-rule="nonzero"/></svg>